<svg width="51" height="51" viewBox="0 0 48 48" fill="none" xmlns="http://www.w3.org/2000/svg">
<path d="M24 46.3418C36.339 46.3418 46.3418 36.3391 46.3418 24C46.3418 11.661 36.339 1.6582 24 1.6582C11.661 1.6582 1.65818 11.661 1.65818 24C1.65818 36.3391 11.661 46.3418 24 46.3418Z" fill="black"/>
<path d="M20.6051 16.6516C20.6051 17.2974 20.6051 20.1774 20.6051 20.1774H18.0218V24.4887H20.6051V36.3054H25.9113V24.48H29.472C29.472 24.48 29.8036 22.4116 29.9695 20.1512C29.5069 20.1512 25.9375 20.1512 25.9375 20.1512C25.9375 20.1512 25.9375 17.6465 25.9375 17.2014C25.9375 16.7651 26.5135 16.1716 27.0895 16.1716C27.6567 16.1716 28.8611 16.1716 29.9782 16.1716C29.9782 15.5869 29.9782 13.5534 29.9782 11.6858C28.4858 11.6858 26.7927 11.6858 26.0509 11.6858C20.4742 11.6945 20.6051 16.0058 20.6051 16.6516Z" fill="white"/>
</svg>
