<svg width="48" height="48" viewBox="0 0 48 48" fill="none" xmlns="http://www.w3.org/2000/svg">
<path d="M44.7803 12.5403C42.6341 8.86315 39.723 5.95195 36.0462 3.80604C32.3689 1.66002 28.3543 0.58728 23.9996 0.58728C19.6455 0.58728 15.6296 1.66035 11.953 3.80604C8.27587 5.95184 5.36489 8.86315 3.21876 12.5403C1.07296 16.2173 0 20.2327 0 24.5862C0 29.8158 1.52576 34.5184 4.57804 38.6952C7.63 42.8724 11.5727 45.7628 16.4057 47.3668C16.9683 47.4712 17.3848 47.3978 17.6556 47.1483C17.9265 46.8985 18.0617 46.5857 18.0617 46.2112C18.0617 46.1487 18.0564 45.5864 18.046 44.5238C18.0353 43.4611 18.0302 42.534 18.0302 41.743L17.3115 41.8674C16.8532 41.9513 16.2751 41.9869 15.5771 41.9768C14.8794 41.9671 14.1552 41.894 13.4053 41.758C12.6552 41.6233 11.9574 41.3108 11.3115 40.8212C10.666 40.3317 10.2077 39.6908 9.9368 38.8997L9.62432 38.1806C9.41603 37.7019 9.08812 37.17 8.64013 36.5871C8.19214 36.0036 7.73912 35.608 7.28085 35.3998L7.06205 35.2431C6.91626 35.139 6.78098 35.0135 6.65588 34.8678C6.53088 34.7221 6.4373 34.5763 6.3748 34.4303C6.3122 34.2842 6.36408 34.1644 6.53099 34.0704C6.69791 33.9763 6.99955 33.9307 7.43725 33.9307L8.062 34.0241C8.47869 34.1076 8.9941 34.357 9.60889 34.7739C10.2233 35.1905 10.7285 35.732 11.1244 36.3984C11.6038 37.2528 12.1813 37.9038 12.8587 38.3518C13.5356 38.7998 14.218 39.0234 14.9054 39.0234C15.5927 39.0234 16.1864 38.9713 16.6866 38.8676C17.1862 38.7634 17.655 38.6068 18.0927 38.3986C18.2802 37.0022 18.7907 35.9295 19.6237 35.1796C18.4364 35.0549 17.3689 34.8669 16.4207 34.6171C15.4731 34.3669 14.4938 33.9608 13.4836 33.3978C12.4728 32.8355 11.6343 32.1373 10.9678 31.3044C10.3013 30.471 9.75424 29.3769 9.32749 28.0231C8.90051 26.6688 8.68697 25.1065 8.68697 23.3357C8.68697 20.8145 9.51005 18.6691 11.1559 16.8981C10.3849 15.0026 10.4577 12.8777 11.3745 10.5236C11.9786 10.3359 12.8746 10.4768 14.0619 10.9454C15.2495 11.4141 16.119 11.8157 16.6713 12.1487C17.2236 12.4815 17.6661 12.7636 17.9995 12.9923C19.9373 12.4509 21.9371 12.1801 23.9994 12.1801C26.0617 12.1801 28.0619 12.4509 29.9999 12.9923L31.1873 12.2427C31.9993 11.7425 32.9582 11.2841 34.0617 10.8674C35.1659 10.451 36.0102 10.3363 36.5938 10.524C37.5309 12.8782 37.6144 15.003 36.8432 16.8984C38.489 18.6694 39.3124 20.8154 39.3124 23.3361C39.3124 25.1068 39.0981 26.674 38.6717 28.0388C38.2449 29.4038 37.6931 30.4967 37.0163 31.32C36.3387 32.1432 35.4948 32.836 34.4846 33.3981C33.4741 33.9607 32.4945 34.3667 31.5469 34.617C30.5988 34.8672 29.5313 35.0552 28.344 35.1802C29.4269 36.1173 29.9685 37.5966 29.9685 39.6173V46.2103C29.9685 46.5849 30.0987 46.8976 30.3594 47.1474C30.6198 47.3969 31.031 47.4703 31.5936 47.3658C36.4273 45.762 40.37 42.8715 43.4218 38.6944C46.4734 34.5176 47.9997 29.815 47.9997 24.5854C47.9986 20.2324 46.9251 16.2173 44.7803 12.5403Z" fill="black"/>
</svg>
