<svg width="48" height="48" viewBox="0 0 48 48" fill="none" xmlns="http://www.w3.org/2000/svg">
<path d="M20.175 0.825003C5.1 3.15 -3.675 19.575 2.625 33.6C10.875 52.05 37.125 52.05 45.375 33.6C50.7 21.825 45.45 7.875 33.825 2.775C28.95 0.600003 24.975 0.0750028 20.175 0.825003ZM34.875 13.125C36.675 14.85 36.75 15.375 36.75 24.375C36.75 33.375 36.675 33.9 34.875 35.625C33.15 37.425 32.625 37.5 24.15 37.5C16.2 37.5 15 37.35 13.2 35.925C11.25 34.425 11.25 34.275 11.25 24.525C11.25 19.05 11.55 14.25 11.85 13.8C13.125 11.85 15.825 11.325 24.225 11.25C32.625 11.25 33.15 11.325 34.875 13.125Z" fill="black"/>
<path d="M29.25 16.5C29.25 18.525 29.475 18.75 31.5 18.75C33.525 18.75 33.75 18.525 33.75 16.5C33.75 14.475 33.525 14.25 31.5 14.25C29.475 14.25 29.25 14.475 29.25 16.5Z" fill="black"/>
<path d="M22.5 20.025C17.775 21.675 18.975 28.5 23.925 28.5C28.275 28.5 29.925 23.775 26.55 21.075C24.45 19.425 24.3 19.35 22.5 20.025Z" fill="black"/>
<path d="M13.65 27.9L13.875 34.125L23.175 34.35C29.325 34.5 32.775 34.275 33.45 33.675C34.2 33.075 34.5 31.125 34.5 27.3C34.5 21.9 34.425 21.75 32.625 21.75C30.975 21.75 30.75 22.05 30.75 24.3C30.75 27.75 28.2 30.675 24.675 31.2C22.425 31.575 21.525 31.275 19.5 29.475C17.625 27.75 17.1 26.7 17.1 24.525C17.1 22.05 16.875 21.75 15.3 21.75C13.425 21.75 13.425 21.825 13.65 27.9Z" fill="black"/>
</svg>
