<svg width="48" height="48" viewBox="0 0 48 48" fill="none" xmlns="http://www.w3.org/2000/svg">
<path d="M23.9998 47.9996C37.2545 47.9996 47.9996 37.2545 47.9996 23.9998C47.9996 10.7451 37.2545 0 23.9998 0C10.7451 0 0 10.7451 0 23.9998C0 37.2545 10.7451 47.9996 23.9998 47.9996Z" fill="black"/>
<path d="M38.7003 17.248C37.6718 17.704 36.5655 18.0125 35.4052 18.1503C36.5899 17.4405 37.499 16.3175 37.9281 14.9771C36.8196 15.6347 35.5913 16.1117 34.2852 16.3688C33.2387 15.2544 31.7478 14.5579 30.0968 14.5579C26.9293 14.5579 24.3602 17.1269 24.3602 20.2945C24.3602 20.7441 24.4111 21.1818 24.5095 21.6019C19.7419 21.3627 15.5146 19.0791 12.685 15.6073C12.1913 16.4544 11.9081 17.4405 11.9081 18.4917C11.9081 20.4814 12.9216 22.2381 14.4601 23.2665C13.5201 23.237 12.635 22.979 11.8619 22.5482C11.8615 22.5726 11.8615 22.597 11.8615 22.621C11.8615 25.4005 13.8397 27.7189 16.4635 28.2455C15.9827 28.3773 15.4748 28.447 14.9525 28.447C14.582 28.447 14.223 28.4115 13.8731 28.3448C14.603 30.6233 16.7211 32.282 19.232 32.3286C17.2683 33.8675 14.795 34.7843 12.1066 34.7843C11.6446 34.7843 11.1868 34.7573 10.7389 34.7039C13.2763 36.3321 16.2924 37.2815 19.5319 37.2815C30.0836 37.2815 35.854 28.5403 35.854 20.9589C35.854 20.7103 35.8484 20.4626 35.8373 20.217C36.9591 19.4085 37.9315 18.3984 38.7003 17.248Z" fill="#F1F2F2"/>
</svg>
