<?xml version="1.0" standalone="no"?>
<!DOCTYPE svg PUBLIC "-//W3C//DTD SVG 20010904//EN"
 "http://www.w3.org/TR/2001/REC-SVG-20010904/DTD/svg10.dtd">
<svg version="1.0" xmlns="http://www.w3.org/2000/svg"
 width="260.000000pt" height="260.000000pt" viewBox="0 0 260.000000 260.000000"
 preserveAspectRatio="xMidYMid meet">
<metadata>
Created by potrace 1.11, written by Peter Selinger 2001-2013
</metadata>
<g transform="translate(0.000000,260.000000) scale(0.100000,-0.100000)"
fill="#000000" stroke="none">
<path d="M1480 2593 c-20 -8 -71 -60 -74 -76 -2 -6 -6 -23 -9 -37 -18 -69 -50
-207 -52 -220 -1 -8 -5 -22 -8 -30 -3 -8 -15 -55 -27 -104 -12 -49 -26 -98
-31 -108 -6 -12 -6 -18 0 -18 7 0 7 -8 1 -22 -9 -21 -85 -317 -95 -369 -9 -45
-37 -164 -42 -179 -4 -8 -7 -21 -9 -29 -1 -8 -6 -26 -10 -40 -4 -14 -6 -30 -5
-35 1 -4 -3 -14 -9 -20 -5 -7 -7 -16 -4 -19 3 -3 2 -12 -2 -19 -5 -7 -10 -24
-12 -38 -1 -14 -5 -32 -9 -40 -3 -8 -5 -22 -4 -32 1 -9 -3 -19 -8 -22 -6 -4
-8 -13 -4 -21 3 -8 0 -15 -5 -15 -6 0 -9 -9 -7 -20 2 -11 1 -22 -3 -24 -4 -2
-9 -19 -10 -37 -1 -18 -7 -38 -12 -44 -5 -7 -7 -15 -3 -18 3 -4 1 -13 -6 -20
-6 -8 -9 -22 -5 -31 4 -10 1 -16 -7 -16 -7 0 -10 -3 -7 -6 4 -3 2 -20 -3 -37
-5 -18 -11 -43 -14 -57 -5 -27 -12 -59 -20 -90 -3 -11 -7 -29 -10 -40 -3 -11
-7 -29 -10 -40 -12 -47 -16 -66 -21 -89 -3 -13 -9 -32 -15 -43 -5 -10 -8 -18
-5 -18 2 0 0 -16 -6 -36 -11 -42 -18 -71 -23 -99 -6 -29 -19 -81 -32 -130 -5
-16 -8 -37 -8 -45 1 -8 3 -24 3 -35 2 -25 39 -66 72 -82 51 -23 159 -45 192
-39 36 7 86 52 92 82 2 11 9 37 14 59 6 22 13 51 16 65 3 14 16 70 30 124 14
55 24 102 21 104 -3 3 -1 10 5 16 5 7 12 27 15 46 3 19 10 39 15 46 6 6 8 13
5 16 -3 3 15 85 41 184 25 98 45 187 45 196 0 10 4 20 9 23 4 3 6 14 3 24 -3
10 0 22 6 25 5 4 8 13 4 21 -3 8 0 15 7 15 6 0 9 4 6 8 -5 8 7 66 21 102 3 8
8 31 10 50 2 19 8 39 13 45 6 7 7 15 3 18 -3 4 0 13 7 22 7 8 10 15 7 15 -3 0
-1 16 5 36 11 41 16 64 24 114 3 19 9 37 13 40 3 3 7 18 8 35 1 16 6 36 9 45
4 8 9 24 11 35 8 41 10 50 16 65 5 13 13 46 24 90 2 8 4 27 6 42 1 16 4 28 7
28 3 0 6 8 7 18 0 9 4 27 7 40 3 12 8 31 11 42 3 11 7 29 10 40 3 11 7 29 10
40 3 11 8 30 11 43 3 12 7 29 8 37 1 9 6 21 10 28 4 7 5 16 2 19 -3 3 -1 14 5
25 6 11 13 31 15 44 2 13 7 36 10 52 3 15 6 34 8 42 1 8 5 22 9 30 7 15 16 56
22 100 2 13 0 29 -5 35 -4 5 -8 14 -8 19 1 17 -54 66 -80 72 -15 3 -48 12 -74
20 -48 14 -92 17 -118 7z"/>
<path d="M628 1946 c-16 -7 -70 -52 -120 -101 -212 -204 -338 -324 -406 -389
-40 -37 -79 -78 -87 -89 -19 -27 -19 -106 -1 -133 18 -26 97 -104 104 -104 4
0 56 -49 117 -108 238 -235 344 -335 371 -353 45 -29 115 -25 156 9 125 104
153 157 117 225 -14 25 -111 128 -116 123 -2 -2 -54 47 -116 110 -62 63 -116
114 -120 114 -9 0 -46 40 -47 50 0 9 99 110 107 110 5 0 49 42 100 93 50 50
116 116 147 146 32 29 55 55 52 58 -3 3 -1 15 4 27 24 64 -113 213 -202 221
-18 1 -45 -3 -60 -9z"/>
<path d="M1863 1943 c-26 -10 -143 -130 -143 -145 0 -9 -4 -19 -9 -23 -11 -6
-5 -48 11 -79 10 -20 78 -92 78 -83 0 3 25 -20 55 -50 30 -30 55 -59 55 -64 0
-5 4 -9 9 -9 12 0 201 -179 201 -190 0 -9 -58 -70 -67 -70 -4 0 -49 -42 -100
-93 -50 -50 -123 -121 -162 -156 -38 -36 -68 -68 -65 -72 2 -4 0 -10 -6 -14
-6 -4 -8 -11 -5 -16 4 -5 2 -9 -3 -9 -6 0 -9 -11 -8 -25 0 -14 5 -25 9 -25 5
0 5 -5 2 -10 -3 -6 1 -13 9 -16 9 -3 14 -9 11 -14 -5 -8 5 -18 83 -85 46 -40
58 -45 100 -45 28 0 58 7 73 18 15 9 102 90 195 179 93 89 224 215 292 280
l122 118 0 52 c0 57 -16 82 -100 158 -50 45 -231 218 -386 369 -56 55 -113
105 -125 112 -23 13 -102 17 -126 7z"/>
</g>
</svg>
