<?xml version="1.0" standalone="no"?>
<!DOCTYPE svg PUBLIC "-//W3C//DTD SVG 20010904//EN"
 "http://www.w3.org/TR/2001/REC-SVG-20010904/DTD/svg10.dtd">
<svg version="1.0" xmlns="http://www.w3.org/2000/svg"
 width="270.000000pt" height="270.000000pt" viewBox="0 0 270.000000 270.000000"
 preserveAspectRatio="xMidYMid meet">
<metadata>
Created by potrace 1.11, written by Peter Selinger 2001-2013
</metadata>
<g transform="translate(0.000000,270.000000) scale(0.100000,-0.100000)"
fill="#000000" stroke="none">
<path d="M1499 2016 c-2 -2 -35 -6 -74 -9 -38 -4 -84 -9 -100 -13 l-31 -6 0
-608 0 -608 44 -7 c24 -4 54 -9 65 -12 12 -2 105 -6 207 -8 152 -2 202 1 280
17 255 52 420 202 476 434 23 93 23 285 0 379 -52 217 -197 357 -429 416 -64
17 -121 22 -258 25 -97 2 -178 2 -180 0z m385 -266 c148 -56 222 -200 210
-406 -10 -185 -102 -305 -264 -346 -30 -8 -100 -15 -155 -17 l-100 -2 1 398
c1 219 2 400 3 402 0 2 56 1 124 -2 92 -4 137 -10 181 -27z"/>
<path d="M749 2003 c-1 -5 -2 -208 -3 -453 -2 -440 -2 -445 -24 -492 -32 -66
-80 -88 -181 -84 -59 2 -93 9 -151 34 -41 18 -77 32 -80 32 -3 0 -12 -17 -19
-37 -7 -21 -24 -60 -36 -88 -42 -94 -43 -88 32 -123 108 -49 169 -61 306 -58
185 4 283 46 359 157 68 98 70 117 73 647 l2 472 -138 0 c-77 0 -139 -3 -140
-7z"/>
</g>
</svg>
