<svg width="48" height="48" viewBox="0 0 48 48" fill="none" xmlns="http://www.w3.org/2000/svg">
<path d="M24 48C37.2548 48 48 37.2548 48 24C48 10.7452 37.2548 0 24 0C10.7452 0 0 10.7452 0 24C0 37.2548 10.7452 48 24 48Z" fill="black"/>
<path d="M38.3398 25.9314V35.8261H32.6031V26.5945C32.6031 24.2766 31.7748 22.6936 29.6977 22.6936C28.1127 22.6936 27.171 23.7594 26.7552 24.7913C26.6042 25.16 26.5652 25.6721 26.5652 26.1894V35.8257H20.8281C20.8281 35.8257 20.9051 20.1905 20.8281 18.572H26.5657V21.017C26.5541 21.0363 26.5378 21.0551 26.5276 21.0735H26.5657V21.017C27.328 19.8439 28.6877 18.1669 31.7359 18.1669C35.5101 18.1669 38.3398 20.6328 38.3398 25.9314ZM14.8266 10.2551C12.8642 10.2551 11.5803 11.5433 11.5803 13.2358C11.5803 14.8923 12.827 16.2177 14.7513 16.2177H14.7886C16.7895 16.2177 18.0336 14.8923 18.0336 13.2358C17.9955 11.5433 16.7895 10.2551 14.8266 10.2551ZM11.9213 35.8261H17.6562V18.572H11.9213V35.8261Z" fill="#F1F2F2"/>
</svg>
